<mxfile host="Electron" agent="Mozilla/5.0 (X11; Linux x86_64) AppleWebKit/537.36 (KHTML, like Gecko) draw.io/24.7.17 Chrome/128.0.6613.36 Electron/32.0.1 Safari/537.36" version="24.7.17">
  <diagram name="Página-1" id="eBz9cwig6zvrii9nWWCz">
    <mxGraphModel dx="819" dy="477" grid="1" gridSize="10" guides="1" tooltips="1" connect="1" arrows="1" fold="1" page="1" pageScale="1" pageWidth="827" pageHeight="1169" math="0" shadow="0">
      <root>
        <mxCell id="0" />
        <mxCell id="1" parent="0" />
        <mxCell id="r6ne2AURndRcHKdJ5-5h-1" value="Cliente" style="swimlane;fontStyle=1;align=center;verticalAlign=top;childLayout=stackLayout;horizontal=1;startSize=26;horizontalStack=0;resizeParent=1;resizeParentMax=0;resizeLast=0;collapsible=1;marginBottom=0;whiteSpace=wrap;html=1;" vertex="1" parent="1">
          <mxGeometry x="220" y="300" width="250" height="112" as="geometry" />
        </mxCell>
        <mxCell id="r6ne2AURndRcHKdJ5-5h-2" value="- estrategiaEnvio : EstrategiaEnvio" style="text;strokeColor=none;fillColor=none;align=left;verticalAlign=top;spacingLeft=4;spacingRight=4;overflow=hidden;rotatable=0;points=[[0,0.5],[1,0.5]];portConstraint=eastwest;whiteSpace=wrap;html=1;" vertex="1" parent="r6ne2AURndRcHKdJ5-5h-1">
          <mxGeometry y="26" width="250" height="26" as="geometry" />
        </mxCell>
        <mxCell id="r6ne2AURndRcHKdJ5-5h-3" value="" style="line;strokeWidth=1;fillColor=none;align=left;verticalAlign=middle;spacingTop=-1;spacingLeft=3;spacingRight=3;rotatable=0;labelPosition=right;points=[];portConstraint=eastwest;strokeColor=inherit;" vertex="1" parent="r6ne2AURndRcHKdJ5-5h-1">
          <mxGeometry y="52" width="250" height="8" as="geometry" />
        </mxCell>
        <mxCell id="r6ne2AURndRcHKdJ5-5h-4" value="+ setEstrategiaEnvio(EstrategiaEnvio): void" style="text;strokeColor=none;fillColor=none;align=left;verticalAlign=top;spacingLeft=4;spacingRight=4;overflow=hidden;rotatable=0;points=[[0,0.5],[1,0.5]];portConstraint=eastwest;whiteSpace=wrap;html=1;" vertex="1" parent="r6ne2AURndRcHKdJ5-5h-1">
          <mxGeometry y="60" width="250" height="26" as="geometry" />
        </mxCell>
        <mxCell id="r6ne2AURndRcHKdJ5-5h-5" value="+ calcularCosto(): double" style="text;strokeColor=none;fillColor=none;align=left;verticalAlign=top;spacingLeft=4;spacingRight=4;overflow=hidden;rotatable=0;points=[[0,0.5],[1,0.5]];portConstraint=eastwest;whiteSpace=wrap;html=1;" vertex="1" parent="r6ne2AURndRcHKdJ5-5h-1">
          <mxGeometry y="86" width="250" height="26" as="geometry" />
        </mxCell>
        <mxCell id="r6ne2AURndRcHKdJ5-5h-14" value="EnvioRegular" style="swimlane;fontStyle=1;align=center;verticalAlign=top;childLayout=stackLayout;horizontal=1;startSize=26;horizontalStack=0;resizeParent=1;resizeParentMax=0;resizeLast=0;collapsible=1;marginBottom=0;whiteSpace=wrap;html=1;" vertex="1" parent="1">
          <mxGeometry x="80" y="610" width="160" height="60" as="geometry" />
        </mxCell>
        <mxCell id="r6ne2AURndRcHKdJ5-5h-16" value="" style="line;strokeWidth=1;fillColor=none;align=left;verticalAlign=middle;spacingTop=-1;spacingLeft=3;spacingRight=3;rotatable=0;labelPosition=right;points=[];portConstraint=eastwest;strokeColor=inherit;" vertex="1" parent="r6ne2AURndRcHKdJ5-5h-14">
          <mxGeometry y="26" width="160" height="8" as="geometry" />
        </mxCell>
        <mxCell id="r6ne2AURndRcHKdJ5-5h-17" value="+ calcularCosto(): double" style="text;strokeColor=none;fillColor=none;align=left;verticalAlign=top;spacingLeft=4;spacingRight=4;overflow=hidden;rotatable=0;points=[[0,0.5],[1,0.5]];portConstraint=eastwest;whiteSpace=wrap;html=1;" vertex="1" parent="r6ne2AURndRcHKdJ5-5h-14">
          <mxGeometry y="34" width="160" height="26" as="geometry" />
        </mxCell>
        <mxCell id="r6ne2AURndRcHKdJ5-5h-18" value="«interface»&lt;br&gt;&lt;b&gt;EstrategiaEnvio&lt;/b&gt;" style="html=1;whiteSpace=wrap;" vertex="1" parent="1">
          <mxGeometry x="290" y="475" width="110" height="50" as="geometry" />
        </mxCell>
        <mxCell id="r6ne2AURndRcHKdJ5-5h-19" value="EnvioExpreso" style="swimlane;fontStyle=1;align=center;verticalAlign=top;childLayout=stackLayout;horizontal=1;startSize=26;horizontalStack=0;resizeParent=1;resizeParentMax=0;resizeLast=0;collapsible=1;marginBottom=0;whiteSpace=wrap;html=1;" vertex="1" parent="1">
          <mxGeometry x="265" y="610" width="160" height="60" as="geometry" />
        </mxCell>
        <mxCell id="r6ne2AURndRcHKdJ5-5h-20" value="" style="line;strokeWidth=1;fillColor=none;align=left;verticalAlign=middle;spacingTop=-1;spacingLeft=3;spacingRight=3;rotatable=0;labelPosition=right;points=[];portConstraint=eastwest;strokeColor=inherit;" vertex="1" parent="r6ne2AURndRcHKdJ5-5h-19">
          <mxGeometry y="26" width="160" height="8" as="geometry" />
        </mxCell>
        <mxCell id="r6ne2AURndRcHKdJ5-5h-21" value="+ calcularCosto(): double" style="text;strokeColor=none;fillColor=none;align=left;verticalAlign=top;spacingLeft=4;spacingRight=4;overflow=hidden;rotatable=0;points=[[0,0.5],[1,0.5]];portConstraint=eastwest;whiteSpace=wrap;html=1;" vertex="1" parent="r6ne2AURndRcHKdJ5-5h-19">
          <mxGeometry y="34" width="160" height="26" as="geometry" />
        </mxCell>
        <mxCell id="r6ne2AURndRcHKdJ5-5h-22" value="EnvioInternacional" style="swimlane;fontStyle=1;align=center;verticalAlign=top;childLayout=stackLayout;horizontal=1;startSize=26;horizontalStack=0;resizeParent=1;resizeParentMax=0;resizeLast=0;collapsible=1;marginBottom=0;whiteSpace=wrap;html=1;" vertex="1" parent="1">
          <mxGeometry x="450" y="610" width="160" height="60" as="geometry" />
        </mxCell>
        <mxCell id="r6ne2AURndRcHKdJ5-5h-23" value="" style="line;strokeWidth=1;fillColor=none;align=left;verticalAlign=middle;spacingTop=-1;spacingLeft=3;spacingRight=3;rotatable=0;labelPosition=right;points=[];portConstraint=eastwest;strokeColor=inherit;" vertex="1" parent="r6ne2AURndRcHKdJ5-5h-22">
          <mxGeometry y="26" width="160" height="8" as="geometry" />
        </mxCell>
        <mxCell id="r6ne2AURndRcHKdJ5-5h-24" value="+ calcularCosto(): double" style="text;strokeColor=none;fillColor=none;align=left;verticalAlign=top;spacingLeft=4;spacingRight=4;overflow=hidden;rotatable=0;points=[[0,0.5],[1,0.5]];portConstraint=eastwest;whiteSpace=wrap;html=1;" vertex="1" parent="r6ne2AURndRcHKdJ5-5h-22">
          <mxGeometry y="34" width="160" height="26" as="geometry" />
        </mxCell>
        <mxCell id="r6ne2AURndRcHKdJ5-5h-25" value="" style="endArrow=none;html=1;edgeStyle=orthogonalEdgeStyle;rounded=0;" edge="1" parent="1" source="r6ne2AURndRcHKdJ5-5h-1" target="r6ne2AURndRcHKdJ5-5h-18">
          <mxGeometry relative="1" as="geometry">
            <mxPoint x="360" y="500" as="sourcePoint" />
            <mxPoint x="520" y="500" as="targetPoint" />
          </mxGeometry>
        </mxCell>
        <mxCell id="r6ne2AURndRcHKdJ5-5h-27" value="1" style="edgeLabel;resizable=0;html=1;align=right;verticalAlign=bottom;" connectable="0" vertex="1" parent="r6ne2AURndRcHKdJ5-5h-25">
          <mxGeometry x="1" relative="1" as="geometry">
            <mxPoint x="-1" as="offset" />
          </mxGeometry>
        </mxCell>
        <mxCell id="r6ne2AURndRcHKdJ5-5h-28" value="" style="endArrow=block;endSize=16;endFill=0;html=1;rounded=0;dashed=1;" edge="1" parent="1" source="r6ne2AURndRcHKdJ5-5h-14" target="r6ne2AURndRcHKdJ5-5h-18">
          <mxGeometry width="160" relative="1" as="geometry">
            <mxPoint x="360" y="500" as="sourcePoint" />
            <mxPoint x="520" y="500" as="targetPoint" />
          </mxGeometry>
        </mxCell>
        <mxCell id="r6ne2AURndRcHKdJ5-5h-29" value="" style="endArrow=block;endSize=16;endFill=0;html=1;rounded=0;dashed=1;" edge="1" parent="1" source="r6ne2AURndRcHKdJ5-5h-22" target="r6ne2AURndRcHKdJ5-5h-18">
          <mxGeometry width="160" relative="1" as="geometry">
            <mxPoint x="360" y="500" as="sourcePoint" />
            <mxPoint x="520" y="500" as="targetPoint" />
          </mxGeometry>
        </mxCell>
        <mxCell id="r6ne2AURndRcHKdJ5-5h-30" value="" style="endArrow=block;endSize=16;endFill=0;html=1;rounded=0;dashed=1;" edge="1" parent="1" source="r6ne2AURndRcHKdJ5-5h-19" target="r6ne2AURndRcHKdJ5-5h-18">
          <mxGeometry x="-0.005" width="160" relative="1" as="geometry">
            <mxPoint x="360" y="500" as="sourcePoint" />
            <mxPoint x="520" y="500" as="targetPoint" />
            <mxPoint as="offset" />
          </mxGeometry>
        </mxCell>
      </root>
    </mxGraphModel>
  </diagram>
</mxfile>
